<svg xmlns="http://www.w3.org/2000/svg" viewBox="0 0 64 64">
  <rect width="64" height="64" rx="17" fill="#23242a"/>
  <path d="M10 11.6 21.5 17A17 17 0 0 1 32 13.2 17 17 0 0 1 42.5 17L54 11.6l-5.1 13A21 21 0 0 1 52.2 36C52.2 48.5 44.1 56 32 56S11.8 48.5 11.8 36a21 21 0 0 1 3.3-11.4L10 11.6Z" fill="#df8a48" stroke="#f5f5f6" stroke-width="2" stroke-linejoin="round"/>
  <circle cx="24.5" cy="30" r="8" fill="#fffdf9" stroke="#23242a" stroke-width="2"/>
  <circle cx="39.5" cy="30" r="8" fill="#fffdf9" stroke="#23242a" stroke-width="2"/>
  <circle cx="25.4" cy="30.5" r="2.8" fill="#23242a"/>
  <circle cx="38.6" cy="30.5" r="2.8" fill="#23242a"/>
  <path d="m32 33.2-3 2.9 3 2.4 3-2.4-3-2.9Z" fill="#23242a"/>
  <path d="M23 40.5h19.8l-1.6 13.6H24.6L23 40.5Z" fill="#fffdf9" stroke="#23242a" stroke-width="2" stroke-linejoin="round"/>
  <path d="M27.5 45h10.7M27.8 48.8h8.2" stroke="#b75c20" stroke-width="1.7" stroke-linecap="round"/>
</svg>
